<?xml version="1.0" standalone="no"?>
<!DOCTYPE svg PUBLIC "-//W3C//DTD SVG 20010904//EN"
 "http://www.w3.org/TR/2001/REC-SVG-20010904/DTD/svg10.dtd">
<svg version="1.0" xmlns="http://www.w3.org/2000/svg"
 width="1024.000000pt" height="1024.000000pt" viewBox="0 0 1024.000000 1024.000000"
 preserveAspectRatio="xMidYMid meet">

<g transform="translate(0.000000,1024.000000) scale(0.100000,-0.100000)"
fill="#000000" stroke="none">
<path d="M4684 9170 c-286 -32 -604 -99 -849 -179 -984 -320 -1826 -1018
-2324 -1926 -214 -392 -375 -890 -440 -1370 -32 -228 -36 -306 -35 -610 1
-224 6 -315 23 -455 61 -485 190 -919 393 -1325 328 -654 790 -1179 1393
-1582 539 -360 1244 -607 1880 -658 39 -3 90 -8 114 -11 88 -11 510 -5 672 10
999 93 1925 541 2593 1254 288 308 490 601 676 977 156 317 224 501 304 825
133 539 161 1049 85 1570 -72 492 -249 1016 -479 1415 -447 779 -1143 1401
-1956 1750 -368 158 -728 254 -1174 311 -193 25 -670 27 -876 4z m887 -169
c1141 -149 2121 -738 2786 -1676 252 -355 468 -829 571 -1255 132 -540 154
-1069 67 -1588 -115 -680 -389 -1292 -820 -1832 -131 -165 -407 -440 -573
-573 -553 -439 -1191 -718 -1883 -821 -271 -41 -408 -49 -688 -43 -442 10
-782 70 -1196 210 -783 265 -1457 770 -1932 1447 -388 552 -612 1153 -695
1865 -19 164 -16 644 6 820 69 571 229 1049 511 1535 606 1044 1655 1740 2870
1904 230 31 292 35 555 31 189 -3 310 -10 421 -24z"/>
<path d="M5250 7965 c-594 -66 -976 -409 -997 -895 -6 -132 7 -209 57 -338
105 -272 416 -570 835 -799 61 -33 174 -93 253 -133 l142 -72 0 -612 0 -611
115 -115 115 -115 2 640 3 640 74 -100 c181 -246 621 -927 1041 -1615 339
-554 682 -1090 699 -1090 3 0 5 777 3 1727 -2 1278 0 1746 8 1798 23 137 113
266 233 335 l52 30 -402 0 c-222 0 -403 -2 -403 -4 0 -2 20 -16 43 -30 94 -54
191 -189 216 -297 16 -69 14 -2079 -2 -2057 -7 9 -111 171 -232 358 -335 520
-570 872 -675 1010 -116 153 -298 337 -405 410 -44 30 -194 113 -335 185 -379
194 -519 282 -689 432 -207 181 -301 355 -303 557 0 50 5 111 12 136 51 187
233 345 462 400 435 105 911 -91 1088 -448 16 -33 30 -73 30 -88 0 -43 15 -17
33 56 12 47 77 461 77 487 0 9 -153 77 -255 112 -293 103 -597 139 -895 106z"/>
<path d="M2850 7951 c53 -28 138 -124 166 -186 57 -129 55 -38 52 -2405 -3
-2078 -4 -2178 -22 -2240 -35 -123 -83 -209 -158 -282 l-70 -68 496 0 c273 0
496 2 496 4 0 2 -31 35 -68 72 -75 75 -119 154 -149 265 -15 58 -17 152 -20
969 -3 774 -2 906 10 915 8 6 54 47 103 91 218 198 248 224 255 222 5 -2 457
-448 1005 -993 548 -545 1110 -1099 1248 -1233 138 -134 253 -250 254 -258 2
-9 -1 -21 -7 -27 -6 -6 -11 -15 -11 -19 0 -4 200 -8 445 -8 431 0 488 4 423
29 -40 15 -230 145 -305 208 -100 83 -765 719 -1448 1383 -197 191 -874 843
-1115 1074 -91 87 -166 163 -168 170 -4 18 348 361 396 385 23 12 67 27 98 34
l57 13 -29 19 c-16 10 -80 62 -143 114 -62 53 -123 104 -135 113 -22 17 -23
16 -103 -80 -205 -247 -531 -588 -731 -764 l-103 -90 4 1128 c2 865 6 1139 16
1174 34 122 109 232 183 268 l43 21 -500 0 c-493 0 -500 0 -465 -18z"/>
<path d="M5534 3422 c-1 -255 -12 -321 -66 -426 -36 -69 -138 -175 -186 -195
-18 -7 -32 -17 -32 -22 0 -5 183 -9 415 -9 228 0 415 4 415 8 0 5 -23 19 -51
33 -29 13 -77 50 -109 81 -99 100 -137 205 -147 405 -4 89 -11 130 -23 150
-14 24 -201 203 -211 203 -2 0 -4 -102 -5 -228z"/>
</g>
</svg>
